<?xml version="1.0" encoding="UTF-8" standalone="no"?>
<svg
   xmlns:dc="http://purl.org/dc/elements/1.1/"
   xmlns:cc="http://creativecommons.org/ns#"
   xmlns:rdf="http://www.w3.org/1999/02/22-rdf-syntax-ns#"
   xmlns:svg="http://www.w3.org/2000/svg"
   xmlns="http://www.w3.org/2000/svg"
   xmlns:sodipodi="http://sodipodi.sourceforge.net/DTD/sodipodi-0.dtd"
   xmlns:inkscape="http://www.inkscape.org/namespaces/inkscape"
   width="31.149908mm"
   height="31.149902mm"
   viewBox="0 0 31.149908 31.149902"
   version="1.1"
   id="svg1068"
   inkscape:version="1.0.2 (e86c870879, 2021-01-15)"
   sodipodi:docname="favicon.svg"
   inkscape:export-filename="/home/ianmethyst/Sandbox/guardalo.com.ar/src/images/favicon.png"
   inkscape:export-xdpi="417.48999"
   inkscape:export-ydpi="417.48999">
  <defs
     id="defs1062">
    <clipPath
       clipPathUnits="userSpaceOnUse"
       id="clipPath18-8">
      <path
         d="M 0,720 H 720 V 0 H 0 Z"
         id="path16-8" />
    </clipPath>
  </defs>
  <sodipodi:namedview
     id="base"
     pagecolor="#ffffff"
     bordercolor="#666666"
     borderopacity="1.0"
     inkscape:pageopacity="0.0"
     inkscape:pageshadow="2"
     inkscape:zoom="1.979899"
     inkscape:cx="53.520218"
     inkscape:cy="-67.681551"
     inkscape:document-units="mm"
     inkscape:current-layer="layer1"
     inkscape:document-rotation="0"
     showgrid="false"
     showguides="true"
     inkscape:guide-bbox="true"
     fit-margin-top="0"
     fit-margin-left="0"
     fit-margin-right="0"
     fit-margin-bottom="0"
     inkscape:window-width="1920"
     inkscape:window-height="1048"
     inkscape:window-x="0"
     inkscape:window-y="32"
     inkscape:window-maximized="0" />
  <metadata
     id="metadata1065">
    <rdf:RDF>
      <cc:Work
         rdf:about="">
        <dc:format>image/svg+xml</dc:format>
        <dc:type
           rdf:resource="http://purl.org/dc/dcmitype/StillImage" />
        <dc:title></dc:title>
      </cc:Work>
    </rdf:RDF>
  </metadata>
  <g
     inkscape:label="Layer 1"
     inkscape:groupmode="layer"
     id="layer1"
     transform="translate(-89.425046,-132.92505)">
    <rect
       style="fill:#ffffff;stroke-width:8.33727;stroke-linecap:round;stop-color:#000000"
       id="rect1686"
       width="31.149902"
       height="31.149902"
       x="89.425049"
       y="132.92505"
       inkscape:export-xdpi="417.48999"
       inkscape:export-ydpi="417.48999" />
    <g
       id="g14-9"
       clip-path="url(#clipPath18-8)"
       transform="matrix(0.12009927,0,0,-0.12009927,61.764275,194.85512)">
      <g
         id="g68-7"
         transform="translate(294.4653,331.4019)">
        <path
           d="M 0,0 H 18.752 L 80.718,95.721 69.304,110.642 Z"
           style="fill:#1a3c5f;fill-opacity:1;fill-rule:nonzero;stroke:none"
           id="path70-7" />
      </g>
      <g
         id="g72-6"
         transform="translate(264.2974,331.4019)">
        <path
           d="M 0,0 H 14.088 L 60.639,71.908 52.063,83.117 Z"
           style="fill:#1574a2;fill-opacity:1;fill-rule:nonzero;stroke:none"
           id="path74-4" />
      </g>
      <g
         id="g76-3"
         transform="translate(244.854,331.4834)">
        <path
           d="m 0,0 h 9.709 l 32.078,49.552 -5.91,7.725 z"
           style="fill:#4faac7;fill-opacity:1;fill-rule:nonzero;stroke:none"
           id="path78-0" />
      </g>
      <g
         id="g80-3"
         transform="translate(363.7695,442.0439)">
        <path
           d="m 0,0 h 40.441 l 70.936,-110.561 H 71.385 Z"
           style="fill:#1d02a3;fill-opacity:1;fill-rule:nonzero;stroke:none"
           id="path82-0" />
      </g>
      <g
         id="g84-9"
         transform="translate(316.3599,414.519)">
        <path
           d="M 0,0 H 30.381 L 83.669,-83.056 H 53.626 Z"
           style="fill:#008dd2;fill-opacity:1;fill-rule:nonzero;stroke:none"
           id="path86-2" />
      </g>
      <g
         id="g88-5"
         transform="translate(280.731,388.7603)">
        <path
           d="M 0,0 H 20.936 L 57.658,-57.235 H 36.954 Z"
           style="fill:#74dbfc;fill-opacity:1;fill-rule:nonzero;stroke:none"
           id="path90-4" />
      </g>
      <g
         id="g92-0"
         transform="translate(230.3159,331.4019)">
        <path
           d="m 0,0 c 0,0 4.053,0.105 11.145,0.291 3.545,0.073 7.852,0.162 12.792,0.264 4.938,0.106 10.51,0.227 16.589,0.286 6.079,0.077 12.664,0.16 19.63,0.248 6.966,0.086 14.311,0.199 21.909,0.228 7.6,0.042 15.452,0.086 23.43,0.13 7.979,0.017 16.084,0.034 24.19,0.052 8.105,-0.017 16.21,-0.034 24.189,-0.051 7.978,-0.043 15.83,-0.086 23.429,-0.127 15.197,-0.089 29.381,-0.345 41.539,-0.477 6.078,-0.059 11.651,-0.177 16.59,-0.285 4.94,-0.103 9.246,-0.193 12.791,-0.267 C 255.315,0.106 259.368,0 259.368,0 c 0,0 -4.053,-0.106 -11.145,-0.292 -3.545,-0.074 -7.851,-0.164 -12.791,-0.267 -4.939,-0.108 -10.512,-0.226 -16.59,-0.285 -12.158,-0.132 -26.342,-0.388 -41.539,-0.477 -7.599,-0.041 -15.451,-0.084 -23.429,-0.127 -7.979,-0.017 -16.084,-0.034 -24.189,-0.051 -8.106,0.018 -16.211,0.035 -24.19,0.052 -7.978,0.044 -15.83,0.088 -23.43,0.13 -7.598,0.029 -14.943,0.142 -21.909,0.228 -6.966,0.088 -13.551,0.171 -19.63,0.248 -6.079,0.059 -11.651,0.18 -16.589,0.286 -4.94,0.102 -9.247,0.191 -12.792,0.264 C 4.053,-0.105 0,0 0,0"
           style="fill:#2e3192;fill-opacity:1;fill-rule:nonzero;stroke:none"
           id="path94-5" />
      </g>
    </g>
  </g>
</svg>
