<?xml version="1.0" encoding="UTF-8" standalone="no"?>
<svg
   xmlns:dc="http://purl.org/dc/elements/1.1/"
   xmlns:cc="http://creativecommons.org/ns#"
   xmlns:rdf="http://www.w3.org/1999/02/22-rdf-syntax-ns#"
   xmlns:svg="http://www.w3.org/2000/svg"
   xmlns="http://www.w3.org/2000/svg"
   xmlns:sodipodi="http://sodipodi.sourceforge.net/DTD/sodipodi-0.dtd"
   xmlns:inkscape="http://www.inkscape.org/namespaces/inkscape"
   width="118.52548mm"
   height="13.468053mm"
   viewBox="0 0 118.52549 13.468053"
   version="1.1"
   id="svg1118"
   inkscape:version="1.0.2 (e86c870879, 2021-01-15)"
   sodipodi:docname="logo.inline.svg"
   inkscape:export-filename="/home/ianmethyst/logo/logo.png"
   inkscape:export-xdpi="299.8652"
   inkscape:export-ydpi="299.8652">
  <defs
     id="defs1112">
    <clipPath
       clipPathUnits="userSpaceOnUse"
       id="clipPath18-8">
      <path
         d="M 0,720 H 720 V 0 H 0 Z"
         id="path16-8" />
    </clipPath>
    <rect
       x="131.23051"
       y="226.6219"
       width="414.30881"
       height="87.654335"
       id="rect927-8" />
    <rect
       x="131.23051"
       y="226.6219"
       width="414.30881"
       height="87.654335"
       id="rect1089" />
  </defs>
  <sodipodi:namedview
     id="base"
     pagecolor="#ffffff"
     bordercolor="#666666"
     borderopacity="1.0"
     inkscape:pageopacity="0.0"
     inkscape:pageshadow="2"
     inkscape:zoom="1.4"
     inkscape:cx="218.57774"
     inkscape:cy="-9.506276"
     inkscape:document-units="mm"
     inkscape:current-layer="text925-9"
     inkscape:document-rotation="0"
     showgrid="false"
     fit-margin-top="0"
     fit-margin-left="0"
     fit-margin-right="0"
     fit-margin-bottom="0"
     inkscape:window-width="1920"
     inkscape:window-height="1048"
     inkscape:window-x="0"
     inkscape:window-y="32"
     inkscape:window-maximized="0" />
  <metadata
     id="metadata1115">
    <rdf:RDF>
      <cc:Work
         rdf:about="">
        <dc:format>image/svg+xml</dc:format>
        <dc:type
           rdf:resource="http://purl.org/dc/dcmitype/StillImage" />
        <dc:title />
      </cc:Work>
    </rdf:RDF>
  </metadata>
  <g
     inkscape:label="Layer 1"
     inkscape:groupmode="layer"
     id="layer1"
     transform="translate(-37.337535,-141.76598)">
    <g
       id="g1097"
       transform="matrix(0.1905606,0,0,-0.1905606,-0.13802441,159.92914)"
       inkscape:export-xdpi="299.8652"
       inkscape:export-ydpi="299.8652">
      <g
         id="g14-9"
         clip-path="url(#clipPath18-8)"
         transform="matrix(0.63024189,0,0,0.63024189,51.504807,-183.28022)">
        <g
           id="g68-7"
           transform="translate(294.4653,331.4019)">
          <path
             d="M 0,0 H 18.752 L 80.718,95.721 69.304,110.642 Z"
             style="fill:#1a3c5f;fill-opacity:1;fill-rule:nonzero;stroke:none"
             id="path70-7" />
        </g>
        <g
           id="g72-6"
           transform="translate(264.2974,331.4019)">
          <path
             d="M 0,0 H 14.088 L 60.639,71.908 52.063,83.117 Z"
             style="fill:#1574a2;fill-opacity:1;fill-rule:nonzero;stroke:none"
             id="path74-4" />
        </g>
        <g
           id="g76-3"
           transform="translate(244.854,331.4834)">
          <path
             d="m 0,0 h 9.709 l 32.078,49.552 -5.91,7.725 z"
             style="fill:#4faac7;fill-opacity:1;fill-rule:nonzero;stroke:none"
             id="path78-0" />
        </g>
        <g
           id="g80-3"
           transform="translate(363.7695,442.0439)">
          <path
             d="m 0,0 h 40.441 l 70.936,-110.561 H 71.385 Z"
             style="fill:#1d02a3;fill-opacity:1;fill-rule:nonzero;stroke:none"
             id="path82-0" />
        </g>
        <g
           id="g84-9"
           transform="translate(316.3599,414.519)">
          <path
             d="M 0,0 H 30.381 L 83.669,-83.056 H 53.626 Z"
             style="fill:#008dd2;fill-opacity:1;fill-rule:nonzero;stroke:none"
             id="path86-2" />
        </g>
        <g
           id="g88-5"
           transform="translate(280.731,388.7603)">
          <path
             d="M 0,0 H 20.936 L 57.658,-57.235 H 36.954 Z"
             style="fill:#74dbfc;fill-opacity:1;fill-rule:nonzero;stroke:none"
             id="path90-4" />
        </g>
        <g
           id="g92-0"
           transform="translate(230.3159,331.4019)">
          <path
             d="m 0,0 c 0,0 4.053,0.105 11.145,0.291 3.545,0.073 7.852,0.162 12.792,0.264 4.938,0.106 10.51,0.227 16.589,0.286 6.079,0.077 12.664,0.16 19.63,0.248 6.966,0.086 14.311,0.199 21.909,0.228 7.6,0.042 15.452,0.086 23.43,0.13 7.979,0.017 16.084,0.034 24.19,0.052 8.105,-0.017 16.21,-0.034 24.189,-0.051 7.978,-0.043 15.83,-0.086 23.429,-0.127 15.197,-0.089 29.381,-0.345 41.539,-0.477 6.078,-0.059 11.651,-0.177 16.59,-0.285 4.94,-0.103 9.246,-0.193 12.791,-0.267 C 255.315,0.106 259.368,0 259.368,0 c 0,0 -4.053,-0.106 -11.145,-0.292 -3.545,-0.074 -7.851,-0.164 -12.791,-0.267 -4.939,-0.108 -10.512,-0.226 -16.59,-0.285 -12.158,-0.132 -26.342,-0.388 -41.539,-0.477 -7.599,-0.041 -15.451,-0.084 -23.429,-0.127 -7.979,-0.017 -16.084,-0.034 -24.189,-0.051 -8.106,0.018 -16.211,0.035 -24.19,0.052 -7.978,0.044 -15.83,0.088 -23.43,0.13 -7.598,0.029 -14.943,0.142 -21.909,0.228 -6.966,0.088 -13.551,0.171 -19.63,0.248 -6.079,0.059 -11.651,0.18 -16.589,0.286 -4.94,0.102 -9.247,0.191 -12.792,0.264 C 4.053,-0.105 0,0 0,0"
             style="fill:#2e3192;fill-opacity:1;fill-rule:nonzero;stroke:none"
             id="path94-5" />
        </g>
      </g>
      <g
         aria-label="GUARDALO.COM"
         transform="matrix(1.6751125,0,0,-1.6751125,157.94425,468.19108)"
         id="text925-9"
         style="font-size:30px;line-height:1.25;font-family:'Open Sans';-inkscape-font-specification:'Open Sans';letter-spacing:-0.837257px;white-space:pre;shape-inside:url(#rect927-8);fill:#1e3264;fill-opacity:1">
        <path
           d="m 147.91047,243.3639 h 4.44 v 10.83 h -3.66 v -1.26 q -2.19,1.62 -5.64,1.62 -2.91,0 -5.34,-1.26 -2.43,-1.26 -3.87,-3.66 -1.44,-2.43 -1.44,-5.76 0,-3.21 1.47,-5.7 1.5,-2.52 4.14,-3.93 2.64,-1.41 5.94,-1.41 2.76,0 5.01,0.93 2.25,0.93 3.78,2.7 l -3.12,2.88 q -2.25,-2.37 -5.43,-2.37 -2.01,0 -3.57,0.87 -1.56,0.84 -2.43,2.4 -0.87,1.56 -0.87,3.6 0,2.13 0.84,3.63 0.87,1.5 2.31,2.28 1.44,0.75 3.15,0.75 2.55,0 4.29,-1.44 z"
           style="font-style:normal;font-variant:normal;font-weight:bold;font-stretch:normal;font-family:'Montserrat Alternates';-inkscape-font-specification:'Montserrat Alternates Bold';fill:#1e3264;fill-opacity:1"
           id="path855" />
        <path
           d="m 174.79321,233.1939 v 21 h -4.71 v -2.55 q -2.16,2.91 -6.36,2.91 -3.72,0 -5.82,-2.34 -2.07,-2.37 -2.07,-6.72 v -12.3 h 4.86 v 12.15 q 0,2.52 1.17,3.81 1.2,1.26 3.24,1.26 2.19,0 3.51,-1.35 1.32,-1.38 1.32,-4.05 v -11.82 z"
           style="font-style:normal;font-variant:normal;font-weight:bold;font-stretch:normal;font-family:'Montserrat Alternates';-inkscape-font-specification:'Montserrat Alternates Bold';fill:#1e3264;fill-opacity:1"
           id="path857" />
        <path
           d="m 188.38595,232.8339 q 2.91,0 5.07,1.14 2.16,1.14 3.36,3.36 1.2,2.22 1.2,5.37 v 11.49 h -4.86 v -5.04 h -9.6 v 5.04 h -4.8 v -11.49 q 0,-3.15 1.2,-5.37 1.2,-2.22 3.36,-3.36 2.16,-1.14 5.07,-1.14 z m 4.77,12.42 v -3 q 0,-2.61 -1.29,-3.93 -1.29,-1.35 -3.51,-1.35 -2.25,0 -3.54,1.35 -1.26,1.32 -1.26,3.93 v 3 z"
           style="font-style:normal;font-variant:normal;font-weight:bold;font-stretch:normal;font-family:'Montserrat Alternates';-inkscape-font-specification:'Montserrat Alternates Bold';fill:#1e3264;fill-opacity:1"
           id="path859" />
        <path
           d="m 215.35868,254.1939 -4.05,-5.85 h -0.24 -4.23 v 5.85 h -4.86 v -21 h 9.09 q 2.79,0 4.83,0.93 2.07,0.93 3.18,2.64 1.11,1.71 1.11,4.05 0,2.34 -1.14,4.05 -1.11,1.68 -3.18,2.58 l 4.71,6.75 z m -0.09,-13.38 q 0,-1.77 -1.14,-2.7 -1.14,-0.96 -3.33,-0.96 h -3.96 v 7.32 h 3.96 q 2.19,0 3.33,-0.96 1.14,-0.96 1.14,-2.7 z"
           style="font-style:normal;font-variant:normal;font-weight:bold;font-stretch:normal;font-family:'Montserrat Alternates';-inkscape-font-specification:'Montserrat Alternates Bold';fill:#1e3264;fill-opacity:1"
           id="path861" />
        <path
           d="m 223.19138,233.1939 h 9.54 q 3.42,0 6.03,1.32 2.64,1.29 4.08,3.66 1.47,2.37 1.47,5.52 0,3.15 -1.47,5.52 -1.44,2.37 -4.08,3.69 -2.61,1.29 -6.03,1.29 h -9.54 z m 9.3,17.01 q 3.15,0 5.01,-1.74 1.89,-1.77 1.89,-4.77 0,-3 -1.89,-4.74 -1.86,-1.77 -5.01,-1.77 h -4.44 v 13.02 z"
           style="font-style:normal;font-variant:normal;font-weight:bold;font-stretch:normal;font-family:'Montserrat Alternates';-inkscape-font-specification:'Montserrat Alternates Bold';fill:#1e3264;fill-opacity:1"
           id="path863" />
        <path
           d="m 256.58407,232.8339 q 2.91,0 5.07,1.14 2.16,1.14 3.36,3.36 1.2,2.22 1.2,5.37 v 11.49 h -4.86 v -5.04 h -9.6 v 5.04 h -4.8 v -11.49 q 0,-3.15 1.2,-5.37 1.2,-2.22 3.36,-3.36 2.16,-1.14 5.07,-1.14 z m 4.77,12.42 v -3 q 0,-2.61 -1.29,-3.93 -1.29,-1.35 -3.51,-1.35 -2.25,0 -3.54,1.35 -1.26,1.32 -1.26,3.93 v 3 z"
           style="font-style:normal;font-variant:normal;font-weight:bold;font-stretch:normal;font-family:'Montserrat Alternates';-inkscape-font-specification:'Montserrat Alternates Bold';fill:#1e3264;fill-opacity:1"
           id="path865" />
        <path
           d="m 270.1768,233.1939 h 4.86 v 17.04 h 10.53 v 3.96 h -15.39 z"
           style="font-style:normal;font-variant:normal;font-weight:bold;font-stretch:normal;font-family:'Montserrat Alternates';-inkscape-font-specification:'Montserrat Alternates Bold';fill:#1e3264;fill-opacity:1"
           id="path867" />
        <path
           d="m 297.26945,254.5539 q -3.27,0 -5.91,-1.41 -2.61,-1.41 -4.11,-3.87 -1.47,-2.49 -1.47,-5.58 0,-3.09 1.47,-5.55 1.5,-2.49 4.11,-3.9 2.64,-1.41 5.91,-1.41 3.27,0 5.88,1.41 2.61,1.41 4.11,3.9 1.5,2.46 1.5,5.55 0,3.09 -1.5,5.58 -1.5,2.46 -4.11,3.87 -2.61,1.41 -5.88,1.41 z m 0,-4.14 q 1.86,0 3.36,-0.84 1.5,-0.87 2.34,-2.4 0.87,-1.53 0.87,-3.48 0,-1.95 -0.87,-3.48 -0.84,-1.53 -2.34,-2.37 -1.5,-0.87 -3.36,-0.87 -1.86,0 -3.36,0.87 -1.5,0.84 -2.37,2.37 -0.84,1.53 -0.84,3.48 0,1.95 0.84,3.48 0.87,1.53 2.37,2.4 1.5,0.84 3.36,0.84 z"
           style="font-style:normal;font-variant:normal;font-weight:bold;font-stretch:normal;font-family:'Montserrat Alternates';-inkscape-font-specification:'Montserrat Alternates Bold';fill:#1e3264;fill-opacity:1"
           id="path869" />
        <path
           d="m 312.42219,254.4339 q -1.23,0 -2.07,-0.84 -0.84,-0.84 -0.84,-2.1 0,-1.29 0.84,-2.07 0.84,-0.81 2.07,-0.81 1.23,0 2.07,0.81 0.84,0.78 0.84,2.07 0,1.26 -0.84,2.1 -0.84,0.84 -2.07,0.84 z"
           style="font-style:normal;font-variant:normal;font-weight:bold;font-stretch:normal;font-family:'Montserrat Alternates';-inkscape-font-specification:'Montserrat Alternates Bold';fill:#1e3264;fill-opacity:1"
           id="path871" />
        <path
           d="m 327.45489,254.5539 q -3.21,0 -5.82,-1.38 -2.58,-1.41 -4.08,-3.87 -1.47,-2.49 -1.47,-5.61 0,-3.12 1.47,-5.58 1.5,-2.49 4.08,-3.87 2.61,-1.41 5.85,-1.41 2.73,0 4.92,0.96 2.22,0.96 3.72,2.76 l -3.12,2.88 q -2.13,-2.46 -5.28,-2.46 -1.95,0 -3.48,0.87 -1.53,0.84 -2.4,2.37 -0.84,1.53 -0.84,3.48 0,1.95 0.84,3.48 0.87,1.53 2.4,2.4 1.53,0.84 3.48,0.84 3.15,0 5.28,-2.49 l 3.12,2.88 q -1.5,1.83 -3.72,2.79 -2.22,0.96 -4.95,0.96 z"
           style="font-style:normal;font-variant:normal;font-weight:bold;font-stretch:normal;font-family:'Montserrat Alternates';-inkscape-font-specification:'Montserrat Alternates Bold';fill:#1e3264;fill-opacity:1"
           id="path873" />
        <path
           d="m 348.27758,254.5539 q -3.27,0 -5.91,-1.41 -2.61,-1.41 -4.11,-3.87 -1.47,-2.49 -1.47,-5.58 0,-3.09 1.47,-5.55 1.5,-2.49 4.11,-3.9 2.64,-1.41 5.91,-1.41 3.27,0 5.88,1.41 2.61,1.41 4.11,3.9 1.5,2.46 1.5,5.55 0,3.09 -1.5,5.58 -1.5,2.46 -4.11,3.87 -2.61,1.41 -5.88,1.41 z m 0,-4.14 q 1.86,0 3.36,-0.84 1.5,-0.87 2.34,-2.4 0.87,-1.53 0.87,-3.48 0,-1.95 -0.87,-3.48 -0.84,-1.53 -2.34,-2.37 -1.5,-0.87 -3.36,-0.87 -1.86,0 -3.36,0.87 -1.5,0.84 -2.37,2.37 -0.84,1.53 -0.84,3.48 0,1.95 0.84,3.48 0.87,1.53 2.37,2.4 1.5,0.84 3.36,0.84 z"
           style="font-style:normal;font-variant:normal;font-weight:bold;font-stretch:normal;font-family:'Montserrat Alternates';-inkscape-font-specification:'Montserrat Alternates Bold';fill:#1e3264;fill-opacity:1"
           id="path875" />
        <path
           d="m 386.56033,232.8339 q 3.72,0 5.79,2.19 2.07,2.16 2.07,6.27 v 12.9 h -4.86 v -12.75 q 0,-2.22 -1.17,-3.33 -1.14,-1.14 -3.03,-1.14 -2.07,0 -3.3,1.2 -1.23,1.17 -1.23,3.57 v 12.45 h -4.86 v -12.75 q 0,-2.22 -1.08,-3.33 -1.08,-1.14 -2.94,-1.14 -2.04,0 -3.27,1.2 -1.23,1.17 -1.23,3.57 v 12.45 h -4.86 v -21 h 4.71 v 2.58 q 0.96,-1.41 2.55,-2.16 1.59,-0.78 3.66,-0.78 2.16,0 3.78,0.81 1.62,0.78 2.49,2.28 1.08,-1.5 2.82,-2.28 1.77,-0.81 3.96,-0.81 z"
           style="font-style:normal;font-variant:normal;font-weight:bold;font-stretch:normal;font-family:'Montserrat Alternates';-inkscape-font-specification:'Montserrat Alternates Bold';fill:#1e3264;fill-opacity:1"
           id="path877" />
      </g>
    </g>
  </g>
</svg>
